<?xml version="1.0" encoding="UTF-8" standalone="no"?>
<!-- Created with Inkscape (http://www.inkscape.org/) -->

<svg
   width="33.866669mm"
   height="33.866669mm"
   viewBox="0 0 33.866669 33.866669"
   version="1.1"
   id="svg318"
   inkscape:version="1.2.1 (9c6d41e410, 2022-07-14)"
   sodipodi:docname="ico.svg"
   inkscape:export-filename="ico.png"
   inkscape:export-xdpi="96"
   inkscape:export-ydpi="96"
   xmlns:inkscape="http://www.inkscape.org/namespaces/inkscape"
   xmlns:sodipodi="http://sodipodi.sourceforge.net/DTD/sodipodi-0.dtd"
   xmlns="http://www.w3.org/2000/svg"
   xmlns:svg="http://www.w3.org/2000/svg">
  <sodipodi:namedview
     id="namedview320"
     pagecolor="#ffffff"
     bordercolor="#999999"
     borderopacity="1"
     inkscape:showpageshadow="0"
     inkscape:pageopacity="0"
     inkscape:pagecheckerboard="0"
     inkscape:deskcolor="#d1d1d1"
     inkscape:document-units="mm"
     showgrid="false"
     inkscape:zoom="0.73851712"
     inkscape:cx="157.07151"
     inkscape:cy="441.42511"
     inkscape:window-width="1920"
     inkscape:window-height="1009"
     inkscape:window-x="1358"
     inkscape:window-y="-8"
     inkscape:window-maximized="1"
     inkscape:current-layer="layer1" />
  <defs
     id="defs315" />
  <g
     inkscape:label="Layer 1"
     inkscape:groupmode="layer"
     id="layer1"
     transform="translate(-75.464421,-43.57901)"
     style="display:inline">
    <path
       d="m 77.355412,69.689588 25.056248,-0.31329 2.15334,-1.792915 -26.897788,0.336315 z m -0.46568,2.81064 22.0986,-0.27631 2.374538,-1.951505 -24.163378,0.302128 z m -0.52217,2.759401 19.25259,-0.240726 2.48479,-2.056762 -21.37315,0.267239 z m 1.85002,-25.058677 30.022858,-0.375392 0.15521,-0.936878 -30.022838,0.375391 z m 14.75237,27.032606 1.87705,-1.581693 -18.5829,0.232352 -0.25873,1.56146 z m -4.28849,-24.981922 8.3149,-0.103965 -0.10349,0.624588 10.881878,-0.136062 0.15386,-1.040746 -30.022828,0.375391 -0.15388,1.040745 10.82609,-0.135363 z m -9.99754,-4.809389 30.022858,-0.37539 0.15657,-0.833012 -30.022858,0.375391 z m 15.7118,19.281408 10.881868,-0.136063 0.31248,-1.71795 -10.881898,0.136062 z m 0.52148,-2.811328 10.881878,-0.136062 0.25872,-1.561465 -10.881898,0.136062 z m -19.14097,0.239331 10.82609,-0.135366 0.2587,-1.561465 -10.82609,0.135363 z m 19.60665,-3.049966 10.881868,-0.136059 0.26075,-1.405666 -10.881898,0.136063 z m -19.14097,0.239332 10.82608,-0.135363 0.26075,-1.405666 -10.82609,0.135364 z m 19.66313,-2.998729 10.881868,-0.136061 0.20632,-1.301107 -10.881878,0.136062 z m -19.14098,0.23933 10.82611,-0.135364 0.20628,-1.301107 -10.82608,0.135364 z m 19.60664,-3.049968 10.881888,-0.136062 0.20836,-1.145304 -10.881898,0.136062 z m -19.14096,0.23933 10.82608,-0.135365 0.20835,-1.145304 -10.82609,0.135364 z m 14.02945,-11.290785 17.969078,-0.224677 0.10282,-0.676514 -17.076208,0.213512 z m -4.96869,21.305981 0.10283,-0.676513 -10.82609,0.135363 -0.10282,0.676516 z m -7.08509,-21.155267 10.77028,-0.134665 0.10282,-0.676515 -10.77027,0.134666 z"
       id="path2474"
       style="font-size:12.9997px;font-family:'Tokyo Drifter Gradient';-inkscape-font-specification:'Tokyo Drifter Gradient';display:inline;fill:#8c0e0f;fill-opacity:1;stroke:#c6856b;stroke-width:0" />
  </g>
</svg>
